<mxfile host="app.diagrams.net" modified="2024-06-15T00:54:05.295Z" agent="Mozilla/5.0 (X11; Linux x86_64; rv:126.0) Gecko/20100101 Firefox/126.0" version="24.5.4" etag="WKZ4fe1wx_xnFEREjpta" type="github">
  <diagram name="PÃ¡gina-1" id="ePsmGVB5C8Cn5_XyzL-h">
    <mxGraphModel>
      <root>
        <mxCell id="0" />
        <mxCell id="1" parent="0" />
      </root>
    </mxGraphModel>
  </diagram>
</mxfile>
